<?xml version="1.0" encoding="UTF-8"?>
<?xml-stylesheet href="https://cdnjs.cloudflare.com/ajax/libs/font-awesome/6.7.2/css/all.min.css" type="text/css"?>
<svg id="graph-12" width="100%" xmlns="http://www.w3.org/2000/svg" style="overflow: hidden; max-width: 100%; touch-action: none; user-select: none; -webkit-user-drag: none; -webkit-tap-highlight-color: rgba(0, 0, 0, 0);" role="graphics-document document" aria-roledescription="sequence" height="100%" xmlns:xlink="http://www.w3.org/1999/xlink" xmlns:ev="http://www.w3.org/2001/xml-events"><defs><symbol id="computer" width="24" height="24"><path transform="scale(.5)" d="M2 2v13h20v-13h-20zm18 11h-16v-9h16v9zm-10.228 6l.466-1h3.524l.467 1h-4.457zm14.228 3h-24l2-6h2.104l-1.33 4h18.45l-1.297-4h2.073l2 6zm-5-10h-14v-7h14v7z"></path></symbol></defs><defs><symbol id="database" fill-rule="evenodd" clip-rule="evenodd"><path transform="scale(.5)" d="M12.258.001l.256.004.255.005.253.008.251.01.249.012.247.015.246.016.242.019.241.02.239.023.236.024.233.027.231.028.229.031.225.032.223.034.22.036.217.038.214.04.211.041.208.043.205.045.201.046.198.048.194.05.191.051.187.053.183.054.18.056.175.057.172.059.168.06.163.061.16.063.155.064.15.066.074.033.073.033.071.034.07.034.069.035.068.035.067.035.066.035.064.036.064.036.062.036.06.036.06.037.058.037.058.037.055.038.055.038.053.038.052.038.051.039.05.039.048.039.047.039.045.04.044.04.043.04.041.04.04.041.039.041.037.041.036.041.034.041.033.042.032.042.03.042.029.042.027.042.026.043.024.043.023.043.021.043.02.043.018.044.017.043.015.044.013.044.012.044.011.045.009.044.007.045.006.045.004.045.002.045.001.045v17l-.001.045-.002.045-.004.045-.006.045-.007.045-.009.044-.011.045-.012.044-.013.044-.015.044-.017.043-.018.044-.02.043-.021.043-.023.043-.024.043-.026.043-.027.042-.029.042-.03.042-.032.042-.033.042-.034.041-.036.041-.037.041-.039.041-.04.041-.041.04-.043.04-.044.04-.045.04-.047.039-.048.039-.05.039-.051.039-.052.038-.053.038-.055.038-.055.038-.058.037-.058.037-.06.037-.06.036-.062.036-.064.036-.064.036-.066.035-.067.035-.068.035-.069.035-.07.034-.071.034-.073.033-.074.033-.15.066-.155.064-.16.063-.163.061-.168.06-.172.059-.175.057-.18.056-.183.054-.187.053-.191.051-.194.05-.198.048-.201.046-.205.045-.208.043-.211.041-.214.04-.217.038-.22.036-.223.034-.225.032-.229.031-.231.028-.233.027-.236.024-.239.023-.241.02-.242.019-.246.016-.247.015-.249.012-.251.01-.253.008-.255.005-.256.004-.258.001-.258-.001-.256-.004-.255-.005-.253-.008-.251-.01-.249-.012-.247-.015-.245-.016-.243-.019-.241-.02-.238-.023-.236-.024-.234-.027-.231-.028-.228-.031-.226-.032-.223-.034-.22-.036-.217-.038-.214-.04-.211-.041-.208-.043-.204-.045-.201-.046-.198-.048-.195-.05-.19-.051-.187-.053-.184-.054-.179-.056-.176-.057-.172-.059-.167-.06-.164-.061-.159-.063-.155-.064-.151-.066-.074-.033-.072-.033-.072-.034-.07-.034-.069-.035-.068-.035-.067-.035-.066-.035-.064-.036-.063-.036-.062-.036-.061-.036-.06-.037-.058-.037-.057-.037-.056-.038-.055-.038-.053-.038-.052-.038-.051-.039-.049-.039-.049-.039-.046-.039-.046-.04-.044-.04-.043-.04-.041-.04-.04-.041-.039-.041-.037-.041-.036-.041-.034-.041-.033-.042-.032-.042-.03-.042-.029-.042-.027-.042-.026-.043-.024-.043-.023-.043-.021-.043-.02-.043-.018-.044-.017-.043-.015-.044-.013-.044-.012-.044-.011-.045-.009-.044-.007-.045-.006-.045-.004-.045-.002-.045-.001-.045v-17l.001-.045.002-.045.004-.045.006-.045.007-.045.009-.044.011-.045.012-.044.013-.044.015-.044.017-.043.018-.044.02-.043.021-.043.023-.043.024-.043.026-.043.027-.042.029-.042.03-.042.032-.042.033-.042.034-.041.036-.041.037-.041.039-.041.04-.041.041-.04.043-.04.044-.04.046-.04.046-.039.049-.039.049-.039.051-.039.052-.038.053-.038.055-.038.056-.038.057-.037.058-.037.06-.037.061-.036.062-.036.063-.036.064-.036.066-.035.067-.035.068-.035.069-.035.07-.034.072-.034.072-.033.074-.033.151-.066.155-.064.159-.063.164-.061.167-.06.172-.059.176-.057.179-.056.184-.054.187-.053.19-.051.195-.05.198-.048.201-.046.204-.045.208-.043.211-.041.214-.04.217-.038.22-.036.223-.034.226-.032.228-.031.231-.028.234-.027.236-.024.238-.023.241-.02.243-.019.245-.016.247-.015.249-.012.251-.01.253-.008.255-.005.256-.004.258-.001.258.001zm-9.258 20.499v.01l.001.021.003.021.004.022.005.021.006.022.007.022.009.023.01.022.011.023.012.023.013.023.015.023.016.024.017.023.018.024.019.024.021.024.022.025.023.024.024.025.052.049.056.05.061.051.066.051.07.051.075.051.079.052.084.052.088.052.092.052.097.052.102.051.105.052.11.052.114.051.119.051.123.051.127.05.131.05.135.05.139.048.144.049.147.047.152.047.155.047.16.045.163.045.167.043.171.043.176.041.178.041.183.039.187.039.19.037.194.035.197.035.202.033.204.031.209.03.212.029.216.027.219.025.222.024.226.021.23.02.233.018.236.016.24.015.243.012.246.01.249.008.253.005.256.004.259.001.26-.001.257-.004.254-.005.25-.008.247-.011.244-.012.241-.014.237-.016.233-.018.231-.021.226-.021.224-.024.22-.026.216-.027.212-.028.21-.031.205-.031.202-.034.198-.034.194-.036.191-.037.187-.039.183-.04.179-.04.175-.042.172-.043.168-.044.163-.045.16-.046.155-.046.152-.047.148-.048.143-.049.139-.049.136-.05.131-.05.126-.05.123-.051.118-.052.114-.051.11-.052.106-.052.101-.052.096-.052.092-.052.088-.053.083-.051.079-.052.074-.052.07-.051.065-.051.06-.051.056-.05.051-.05.023-.024.023-.025.021-.024.02-.024.019-.024.018-.024.017-.024.015-.023.014-.024.013-.023.012-.023.01-.023.01-.022.008-.022.006-.022.006-.022.004-.022.004-.021.001-.021.001-.021v-4.127l-.077.055-.08.053-.083.054-.085.053-.087.052-.09.052-.093.051-.095.05-.097.05-.1.049-.102.049-.105.048-.106.047-.109.047-.111.046-.114.045-.115.045-.118.044-.12.043-.122.042-.124.042-.126.041-.128.04-.13.04-.132.038-.134.038-.135.037-.138.037-.139.035-.142.035-.143.034-.144.033-.147.032-.148.031-.15.03-.151.03-.153.029-.154.027-.156.027-.158.026-.159.025-.161.024-.162.023-.163.022-.165.021-.166.02-.167.019-.169.018-.169.017-.171.016-.173.015-.173.014-.175.013-.175.012-.177.011-.178.01-.179.008-.179.008-.181.006-.182.005-.182.004-.184.003-.184.002h-.37l-.184-.002-.184-.003-.182-.004-.182-.005-.181-.006-.179-.008-.179-.008-.178-.01-.176-.011-.176-.012-.175-.013-.173-.014-.172-.015-.171-.016-.17-.017-.169-.018-.167-.019-.166-.02-.165-.021-.163-.022-.162-.023-.161-.024-.159-.025-.157-.026-.156-.027-.155-.027-.153-.029-.151-.03-.15-.03-.148-.031-.146-.032-.145-.033-.143-.034-.141-.035-.14-.035-.137-.037-.136-.037-.134-.038-.132-.038-.13-.04-.128-.04-.126-.041-.124-.042-.122-.042-.12-.044-.117-.043-.116-.045-.113-.045-.112-.046-.109-.047-.106-.047-.105-.048-.102-.049-.1-.049-.097-.05-.095-.05-.093-.052-.09-.051-.087-.052-.085-.053-.083-.054-.08-.054-.077-.054v4.127zm0-5.654v.011l.001.021.003.021.004.021.005.022.006.022.007.022.009.022.01.022.011.023.012.023.013.023.015.024.016.023.017.024.018.024.019.024.021.024.022.024.023.025.024.024.052.05.056.05.061.05.066.051.07.051.075.052.079.051.084.052.088.052.092.052.097.052.102.052.105.052.11.051.114.051.119.052.123.05.127.051.131.05.135.049.139.049.144.048.147.048.152.047.155.046.16.045.163.045.167.044.171.042.176.042.178.04.183.04.187.038.19.037.194.036.197.034.202.033.204.032.209.03.212.028.216.027.219.025.222.024.226.022.23.02.233.018.236.016.24.014.243.012.246.01.249.008.253.006.256.003.259.001.26-.001.257-.003.254-.006.25-.008.247-.01.244-.012.241-.015.237-.016.233-.018.231-.02.226-.022.224-.024.22-.025.216-.027.212-.029.21-.03.205-.032.202-.033.198-.035.194-.036.191-.037.187-.039.183-.039.179-.041.175-.042.172-.043.168-.044.163-.045.16-.045.155-.047.152-.047.148-.048.143-.048.139-.05.136-.049.131-.05.126-.051.123-.051.118-.051.114-.052.11-.052.106-.052.101-.052.096-.052.092-.052.088-.052.083-.052.079-.052.074-.051.07-.052.065-.051.06-.05.056-.051.051-.049.023-.025.023-.024.021-.025.02-.024.019-.024.018-.024.017-.024.015-.023.014-.023.013-.024.012-.022.01-.023.01-.023.008-.022.006-.022.006-.022.004-.021.004-.022.001-.021.001-.021v-4.139l-.077.054-.08.054-.083.054-.085.052-.087.053-.09.051-.093.051-.095.051-.097.05-.1.049-.102.049-.105.048-.106.047-.109.047-.111.046-.114.045-.115.044-.118.044-.12.044-.122.042-.124.042-.126.041-.128.04-.13.039-.132.039-.134.038-.135.037-.138.036-.139.036-.142.035-.143.033-.144.033-.147.033-.148.031-.15.03-.151.03-.153.028-.154.028-.156.027-.158.026-.159.025-.161.024-.162.023-.163.022-.165.021-.166.02-.167.019-.169.018-.169.017-.171.016-.173.015-.173.014-.175.013-.175.012-.177.011-.178.009-.179.009-.179.007-.181.007-.182.005-.182.004-.184.003-.184.002h-.37l-.184-.002-.184-.003-.182-.004-.182-.005-.181-.007-.179-.007-.179-.009-.178-.009-.176-.011-.176-.012-.175-.013-.173-.014-.172-.015-.171-.016-.17-.017-.169-.018-.167-.019-.166-.02-.165-.021-.163-.022-.162-.023-.161-.024-.159-.025-.157-.026-.156-.027-.155-.028-.153-.028-.151-.03-.15-.03-.148-.031-.146-.033-.145-.033-.143-.033-.141-.035-.14-.036-.137-.036-.136-.037-.134-.038-.132-.039-.13-.039-.128-.04-.126-.041-.124-.042-.122-.043-.12-.043-.117-.044-.116-.044-.113-.046-.112-.046-.109-.046-.106-.047-.105-.048-.102-.049-.1-.049-.097-.05-.095-.051-.093-.051-.09-.051-.087-.053-.085-.052-.083-.054-.08-.054-.077-.054v4.139zm0-5.666v.011l.001.02.003.022.004.021.005.022.006.021.007.022.009.023.01.022.011.023.012.023.013.023.015.023.016.024.017.024.018.023.019.024.021.025.022.024.023.024.024.025.052.05.056.05.061.05.066.051.07.051.075.052.079.051.084.052.088.052.092.052.097.052.102.052.105.051.11.052.114.051.119.051.123.051.127.05.131.05.135.05.139.049.144.048.147.048.152.047.155.046.16.045.163.045.167.043.171.043.176.042.178.04.183.04.187.038.19.037.194.036.197.034.202.033.204.032.209.03.212.028.216.027.219.025.222.024.226.021.23.02.233.018.236.017.24.014.243.012.246.01.249.008.253.006.256.003.259.001.26-.001.257-.003.254-.006.25-.008.247-.01.244-.013.241-.014.237-.016.233-.018.231-.02.226-.022.224-.024.22-.025.216-.027.212-.029.21-.03.205-.032.202-.033.198-.035.194-.036.191-.037.187-.039.183-.039.179-.041.175-.042.172-.043.168-.044.163-.045.16-.045.155-.047.152-.047.148-.048.143-.049.139-.049.136-.049.131-.051.126-.05.123-.051.118-.052.114-.051.11-.052.106-.052.101-.052.096-.052.092-.052.088-.052.083-.052.079-.052.074-.052.07-.051.065-.051.06-.051.056-.05.051-.049.023-.025.023-.025.021-.024.02-.024.019-.024.018-.024.017-.024.015-.023.014-.024.013-.023.012-.023.01-.022.01-.023.008-.022.006-.022.006-.022.004-.022.004-.021.001-.021.001-.021v-4.153l-.077.054-.08.054-.083.053-.085.053-.087.053-.09.051-.093.051-.095.051-.097.05-.1.049-.102.048-.105.048-.106.048-.109.046-.111.046-.114.046-.115.044-.118.044-.12.043-.122.043-.124.042-.126.041-.128.04-.13.039-.132.039-.134.038-.135.037-.138.036-.139.036-.142.034-.143.034-.144.033-.147.032-.148.032-.15.03-.151.03-.153.028-.154.028-.156.027-.158.026-.159.024-.161.024-.162.023-.163.023-.165.021-.166.02-.167.019-.169.018-.169.017-.171.016-.173.015-.173.014-.175.013-.175.012-.177.01-.178.01-.179.009-.179.007-.181.006-.182.006-.182.004-.184.003-.184.001-.185.001-.185-.001-.184-.001-.184-.003-.182-.004-.182-.006-.181-.006-.179-.007-.179-.009-.178-.01-.176-.01-.176-.012-.175-.013-.173-.014-.172-.015-.171-.016-.17-.017-.169-.018-.167-.019-.166-.02-.165-.021-.163-.023-.162-.023-.161-.024-.159-.024-.157-.026-.156-.027-.155-.028-.153-.028-.151-.03-.15-.03-.148-.032-.146-.032-.145-.033-.143-.034-.141-.034-.14-.036-.137-.036-.136-.037-.134-.038-.132-.039-.13-.039-.128-.041-.126-.041-.124-.041-.122-.043-.12-.043-.117-.044-.116-.044-.113-.046-.112-.046-.109-.046-.106-.048-.105-.048-.102-.048-.1-.05-.097-.049-.095-.051-.093-.051-.09-.052-.087-.052-.085-.053-.083-.053-.08-.054-.077-.054v4.153zm8.74-8.179l-.257.004-.254.005-.25.008-.247.011-.244.012-.241.014-.237.016-.233.018-.231.021-.226.022-.224.023-.22.026-.216.027-.212.028-.21.031-.205.032-.202.033-.198.034-.194.036-.191.038-.187.038-.183.04-.179.041-.175.042-.172.043-.168.043-.163.045-.16.046-.155.046-.152.048-.148.048-.143.048-.139.049-.136.05-.131.05-.126.051-.123.051-.118.051-.114.052-.11.052-.106.052-.101.052-.096.052-.092.052-.088.052-.083.052-.079.052-.074.051-.07.052-.065.051-.06.05-.056.05-.051.05-.023.025-.023.024-.021.024-.02.025-.019.024-.018.024-.017.023-.015.024-.014.023-.013.023-.012.023-.01.023-.01.022-.008.022-.006.023-.006.021-.004.022-.004.021-.001.021-.001.021.001.021.001.021.004.021.004.022.006.021.006.023.008.022.01.022.01.023.012.023.013.023.014.023.015.024.017.023.018.024.019.024.02.025.021.024.023.024.023.025.051.05.056.05.06.05.065.051.07.052.074.051.079.052.083.052.088.052.092.052.096.052.101.052.106.052.11.052.114.052.118.051.123.051.126.051.131.05.136.05.139.049.143.048.148.048.152.048.155.046.16.046.163.045.168.043.172.043.175.042.179.041.183.04.187.038.191.038.194.036.198.034.202.033.205.032.21.031.212.028.216.027.22.026.224.023.226.022.231.021.233.018.237.016.241.014.244.012.247.011.25.008.254.005.257.004.26.001.26-.001.257-.004.254-.005.25-.008.247-.011.244-.012.241-.014.237-.016.233-.018.231-.021.226-.022.224-.023.22-.026.216-.027.212-.028.21-.031.205-.032.202-.033.198-.034.194-.036.191-.038.187-.038.183-.04.179-.041.175-.042.172-.043.168-.043.163-.045.16-.046.155-.046.152-.048.148-.048.143-.048.139-.049.136-.05.131-.05.126-.051.123-.051.118-.051.114-.052.11-.052.106-.052.101-.052.096-.052.092-.052.088-.052.083-.052.079-.052.074-.051.07-.052.065-.051.06-.05.056-.05.051-.05.023-.025.023-.024.021-.024.02-.025.019-.024.018-.024.017-.023.015-.024.014-.023.013-.023.012-.023.01-.023.01-.022.008-.022.006-.023.006-.021.004-.022.004-.021.001-.021.001-.021-.001-.021-.001-.021-.004-.021-.004-.022-.006-.021-.006-.023-.008-.022-.01-.022-.01-.023-.012-.023-.013-.023-.014-.023-.015-.024-.017-.023-.018-.024-.019-.024-.02-.025-.021-.024-.023-.024-.023-.025-.051-.05-.056-.05-.06-.05-.065-.051-.07-.052-.074-.051-.079-.052-.083-.052-.088-.052-.092-.052-.096-.052-.101-.052-.106-.052-.11-.052-.114-.052-.118-.051-.123-.051-.126-.051-.131-.05-.136-.05-.139-.049-.143-.048-.148-.048-.152-.048-.155-.046-.16-.046-.163-.045-.168-.043-.172-.043-.175-.042-.179-.041-.183-.04-.187-.038-.191-.038-.194-.036-.198-.034-.202-.033-.205-.032-.21-.031-.212-.028-.216-.027-.22-.026-.224-.023-.226-.022-.231-.021-.233-.018-.237-.016-.241-.014-.244-.012-.247-.011-.25-.008-.254-.005-.257-.004-.26-.001-.26.001z"></path></symbol></defs><defs><symbol id="clock" width="24" height="24"><path transform="scale(.5)" d="M12 2c5.514 0 10 4.486 10 10s-4.486 10-10 10-10-4.486-10-10 4.486-10 10-10zm0-2c-6.627 0-12 5.373-12 12s5.373 12 12 12 12-5.373 12-12-5.373-12-12-12zm5.848 12.459c.202.038.202.333.001.372-1.907.361-6.045 1.111-6.547 1.111-.719 0-1.301-.582-1.301-1.301 0-.512.77-5.447 1.125-7.445.034-.192.312-.181.343.014l.985 6.238 5.394 1.011z"></path></symbol></defs><defs><marker id="arrowhead" refX="7.9" refY="5" markerUnits="userSpaceOnUse" markerWidth="12" markerHeight="12" orient="auto-start-reverse"><path d="M -1 0 L 10 5 L 0 10 z"></path></marker></defs><defs><marker id="crosshead" markerWidth="15" markerHeight="8" orient="auto" refX="4" refY="4.5"><path fill="none" stroke="#000000" stroke-width="1pt" d="M 1,2 L 6,7 M 6,2 L 1,7" style="stroke-dasharray: 0, 0;"></path></marker></defs><defs><marker id="filled-head" refX="15.5" refY="7" markerWidth="20" markerHeight="28" orient="auto"><path d="M 18,7 L9,13 L14,7 L9,1 Z"></path></marker></defs><defs><marker id="sequencenumber" refX="15" refY="15" markerWidth="60" markerHeight="40" orient="auto"><circle cx="15" cy="15" r="6"></circle></marker></defs><g id="viewport-20250802114610236" class="svg-pan-zoom_viewport" transform="matrix(0.463801341241796,0,0,0.463801341241796,-68.83214388750164,59.7699179753824)" style="transform: matrix(0.463801, 0, 0, 0.463801, -68.8321, 59.7699);"><g><rect x="2431" y="1979" fill="#eaeaea" stroke="#666" width="150" height="65" name="ResolverC" rx="3" ry="3" class="actor actor-bottom"></rect><text x="2506" y="2011.5" dominant-baseline="central" alignment-baseline="central" class="actor actor-box" style="text-anchor: middle; font-size: 16px; font-weight: 400;"><tspan x="2506" dy="0">ResolverC</tspan></text></g><g><rect x="2157" y="1979" fill="#eaeaea" stroke="#666" width="224" height="65" name="TEB" rx="3" ry="3" class="actor actor-bottom"></rect><text x="2269" y="2011.5" dominant-baseline="central" alignment-baseline="central" class="actor actor-box" style="text-anchor: middle; font-size: 16px; font-weight: 400;"><tspan x="2269" dy="0">"TakerEscrow&nbsp;B (Chain B)"</tspan></text></g><g><rect x="1882" y="1979" fill="#eaeaea" stroke="#666" width="225" height="65" name="TEA" rx="3" ry="3" class="actor actor-bottom"></rect><text x="1994.5" y="2011.5" dominant-baseline="central" alignment-baseline="central" class="actor actor-box" style="text-anchor: middle; font-size: 16px; font-weight: 400;"><tspan x="1994.5" dy="0">"TakerEscrow&nbsp;A (Chain B)"</tspan></text></g><g><rect x="1421" y="1979" fill="#eaeaea" stroke="#666" width="411" height="65" name="MEB" rx="3" ry="3" class="actor actor-bottom"></rect><text x="1626.5" y="2011.5" dominant-baseline="central" alignment-baseline="central" class="actor actor-box" style="text-anchor: middle; font-size: 16px; font-weight: 400;"><tspan x="1626.5" dy="0">"MakerEscrow&nbsp;B (Chain A)"  %% optional 100‑% leaf</tspan></text></g><g><rect x="1140" y="1979" fill="#eaeaea" stroke="#666" width="231" height="65" name="MEA" rx="3" ry="3" class="actor actor-bottom"></rect><text x="1255.5" y="2011.5" dominant-baseline="central" alignment-baseline="central" class="actor actor-box" style="text-anchor: middle; font-size: 16px; font-weight: 400;"><tspan x="1255.5" dy="0">"MakerEscrow&nbsp;A (Chain A)"</tspan></text></g><g><rect x="940" y="1979" fill="#eaeaea" stroke="#666" width="150" height="65" name="ResolverB" rx="3" ry="3" class="actor actor-bottom"></rect><text x="1015" y="2011.5" dominant-baseline="central" alignment-baseline="central" class="actor actor-box" style="text-anchor: middle; font-size: 16px; font-weight: 400;"><tspan x="1015" dy="0">ResolverB</tspan></text></g><g><rect x="740" y="1979" fill="#eaeaea" stroke="#666" width="150" height="65" name="ResolverA" rx="3" ry="3" class="actor actor-bottom"></rect><text x="815" y="2011.5" dominant-baseline="central" alignment-baseline="central" class="actor actor-box" style="text-anchor: middle; font-size: 16px; font-weight: 400;"><tspan x="815" dy="0">ResolverA</tspan></text></g><g><rect x="429" y="1979" fill="#eaeaea" stroke="#666" width="150" height="65" name="Relayer" rx="3" ry="3" class="actor actor-bottom"></rect><text x="504" y="2011.5" dominant-baseline="central" alignment-baseline="central" class="actor actor-box" style="text-anchor: middle; font-size: 16px; font-weight: 400;"><tspan x="504" dy="0">Relayer</tspan></text></g><g><rect x="0" y="1979" fill="#eaeaea" stroke="#666" width="150" height="65" name="Maker" rx="3" ry="3" class="actor actor-bottom"></rect><text x="75" y="2011.5" dominant-baseline="central" alignment-baseline="central" class="actor actor-box" style="text-anchor: middle; font-size: 16px; font-weight: 400;"><tspan x="75" dy="0">Maker</tspan></text></g><g><line id="actor102" x1="2506" y1="65" x2="2506" y2="1979" class="actor-line 200" stroke-width="0.5px" stroke="#999" name="ResolverC"></line><g id="root-102"><rect x="2431" y="0" fill="#eaeaea" stroke="#666" width="150" height="65" name="ResolverC" rx="3" ry="3" class="actor actor-top"></rect><text x="2506" y="32.5" dominant-baseline="central" alignment-baseline="central" class="actor actor-box" style="text-anchor: middle; font-size: 16px; font-weight: 400;"><tspan x="2506" dy="0">ResolverC</tspan></text></g></g><g><line id="actor101" x1="2269" y1="65" x2="2269" y2="1979" class="actor-line 200" stroke-width="0.5px" stroke="#999" name="TEB"></line><g id="root-101"><rect x="2157" y="0" fill="#eaeaea" stroke="#666" width="224" height="65" name="TEB" rx="3" ry="3" class="actor actor-top"></rect><text x="2269" y="32.5" dominant-baseline="central" alignment-baseline="central" class="actor actor-box" style="text-anchor: middle; font-size: 16px; font-weight: 400;"><tspan x="2269" dy="0">"TakerEscrow&nbsp;B (Chain B)"</tspan></text></g></g><g><line id="actor100" x1="1994.5" y1="65" x2="1994.5" y2="1979" class="actor-line 200" stroke-width="0.5px" stroke="#999" name="TEA"></line><g id="root-100"><rect x="1882" y="0" fill="#eaeaea" stroke="#666" width="225" height="65" name="TEA" rx="3" ry="3" class="actor actor-top"></rect><text x="1994.5" y="32.5" dominant-baseline="central" alignment-baseline="central" class="actor actor-box" style="text-anchor: middle; font-size: 16px; font-weight: 400;"><tspan x="1994.5" dy="0">"TakerEscrow&nbsp;A (Chain B)"</tspan></text></g></g><g><line id="actor99" x1="1626.5" y1="65" x2="1626.5" y2="1979" class="actor-line 200" stroke-width="0.5px" stroke="#999" name="MEB"></line><g id="root-99"><rect x="1421" y="0" fill="#eaeaea" stroke="#666" width="411" height="65" name="MEB" rx="3" ry="3" class="actor actor-top"></rect><text x="1626.5" y="32.5" dominant-baseline="central" alignment-baseline="central" class="actor actor-box" style="text-anchor: middle; font-size: 16px; font-weight: 400;"><tspan x="1626.5" dy="0">"MakerEscrow&nbsp;B (Chain A)"  %% optional 100‑% leaf</tspan></text></g></g><g><line id="actor98" x1="1255.5" y1="65" x2="1255.5" y2="1979" class="actor-line 200" stroke-width="0.5px" stroke="#999" name="MEA"></line><g id="root-98"><rect x="1140" y="0" fill="#eaeaea" stroke="#666" width="231" height="65" name="MEA" rx="3" ry="3" class="actor actor-top"></rect><text x="1255.5" y="32.5" dominant-baseline="central" alignment-baseline="central" class="actor actor-box" style="text-anchor: middle; font-size: 16px; font-weight: 400;"><tspan x="1255.5" dy="0">"MakerEscrow&nbsp;A (Chain A)"</tspan></text></g></g><g><line id="actor97" x1="1015" y1="65" x2="1015" y2="1979" class="actor-line 200" stroke-width="0.5px" stroke="#999" name="ResolverB"></line><g id="root-97"><rect x="940" y="0" fill="#eaeaea" stroke="#666" width="150" height="65" name="ResolverB" rx="3" ry="3" class="actor actor-top"></rect><text x="1015" y="32.5" dominant-baseline="central" alignment-baseline="central" class="actor actor-box" style="text-anchor: middle; font-size: 16px; font-weight: 400;"><tspan x="1015" dy="0">ResolverB</tspan></text></g></g><g><line id="actor96" x1="815" y1="65" x2="815" y2="1979" class="actor-line 200" stroke-width="0.5px" stroke="#999" name="ResolverA"></line><g id="root-96"><rect x="740" y="0" fill="#eaeaea" stroke="#666" width="150" height="65" name="ResolverA" rx="3" ry="3" class="actor actor-top"></rect><text x="815" y="32.5" dominant-baseline="central" alignment-baseline="central" class="actor actor-box" style="text-anchor: middle; font-size: 16px; font-weight: 400;"><tspan x="815" dy="0">ResolverA</tspan></text></g></g><g><line id="actor95" x1="504" y1="65" x2="504" y2="1979" class="actor-line 200" stroke-width="0.5px" stroke="#999" name="Relayer"></line><g id="root-95"><rect x="429" y="0" fill="#eaeaea" stroke="#666" width="150" height="65" name="Relayer" rx="3" ry="3" class="actor actor-top"></rect><text x="504" y="32.5" dominant-baseline="central" alignment-baseline="central" class="actor actor-box" style="text-anchor: middle; font-size: 16px; font-weight: 400;"><tspan x="504" dy="0">Relayer</tspan></text></g></g><g><line id="actor94" x1="75" y1="65" x2="75" y2="1979" class="actor-line 200" stroke-width="0.5px" stroke="#999" name="Maker"></line><g id="root-94"><rect x="0" y="0" fill="#eaeaea" stroke="#666" width="150" height="65" name="Maker" rx="3" ry="3" class="actor actor-top"></rect><text x="75" y="32.5" dominant-baseline="central" alignment-baseline="central" class="actor actor-box" style="text-anchor: middle; font-size: 16px; font-weight: 400;"><tspan x="75" dy="0">Maker</tspan></text></g></g><style>#graph-12{font-family:"trebuchet ms",verdana,arial,sans-serif;font-size:64;fill:#ccc;}@keyframes edge-animation-frame{from{stroke-dashoffset:0;}}@keyframes dash{to{stroke-dashoffset:0;}}#graph-12 .edge-animation-slow{stroke-dasharray:9,5!important;stroke-dashoffset:900;animation:dash 50s linear infinite;stroke-linecap:round;}#graph-12 .edge-animation-fast{stroke-dasharray:9,5!important;stroke-dashoffset:900;animation:dash 20s linear infinite;stroke-linecap:round;}#graph-12 .error-icon{fill:#a44141;}#graph-12 .error-text{fill:#ddd;stroke:#ddd;}#graph-12 .edge-thickness-normal{stroke-width:1px;}#graph-12 .edge-thickness-thick{stroke-width:3.5px;}#graph-12 .edge-pattern-solid{stroke-dasharray:0;}#graph-12 .edge-thickness-invisible{stroke-width:0;fill:none;}#graph-12 .edge-pattern-dashed{stroke-dasharray:3;}#graph-12 .edge-pattern-dotted{stroke-dasharray:2;}#graph-12 .marker{fill:lightgrey;stroke:lightgrey;}#graph-12 .marker.cross{stroke:lightgrey;}#graph-12 svg{font-family:"trebuchet ms",verdana,arial,sans-serif;font-size:64;}#graph-12 p{margin:0;}#graph-12 .actor{stroke:#ccc;fill:#1f2020;}#graph-12 text.actor&gt;tspan{fill:lightgrey;stroke:none;}#graph-12 .actor-line{stroke:#ccc;}#graph-12 .messageLine0{stroke-width:1.5;stroke-dasharray:none;stroke:lightgrey;}#graph-12 .messageLine1{stroke-width:1.5;stroke-dasharray:2,2;stroke:lightgrey;}#graph-12 #arrowhead path{fill:lightgrey;stroke:lightgrey;}#graph-12 .sequenceNumber{fill:black;}#graph-12 #sequencenumber{fill:lightgrey;}#graph-12 #crosshead path{fill:lightgrey;stroke:lightgrey;}#graph-12 .messageText{fill:lightgrey;stroke:none;}#graph-12 .labelBox{stroke:#ccc;fill:#1f2020;}#graph-12 .labelText,#graph-12 .labelText&gt;tspan{fill:lightgrey;stroke:none;}#graph-12 .loopText,#graph-12 .loopText&gt;tspan{fill:lightgrey;stroke:none;}#graph-12 .loopLine{stroke-width:2px;stroke-dasharray:2,2;stroke:#ccc;fill:#ccc;}#graph-12 .note{stroke:hsl(180, 0%, 18.3529411765%);fill:hsl(180, 1.5873015873%, 28.3529411765%);}#graph-12 .noteText,#graph-12 .noteText&gt;tspan{fill:rgb(183.8476190475, 181.5523809523, 181.5523809523);stroke:none;}#graph-12 .activation0{fill:hsl(180, 1.5873015873%, 28.3529411765%);stroke:#ccc;}#graph-12 .activation1{fill:hsl(180, 1.5873015873%, 28.3529411765%);stroke:#ccc;}#graph-12 .activation2{fill:hsl(180, 1.5873015873%, 28.3529411765%);stroke:#ccc;}#graph-12 .actorPopupMenu{position:absolute;}#graph-12 .actorPopupMenuPanel{position:absolute;fill:#1f2020;box-shadow:0px 8px 16px 0px rgba(0,0,0,0.2);filter:drop-shadow(3px 5px 2px rgb(0 0 0 / 0.4));}#graph-12 .actor-man line{stroke:#ccc;fill:#1f2020;}#graph-12 .actor-man circle,#graph-12 line{stroke:#ccc;fill:#1f2020;stroke-width:2px;}#graph-12 :root{--mermaid-font-family:"trebuchet ms",verdana,arial,sans-serif;}</style><g></g><g><rect x="285" y="219" fill="#EDF2AE" stroke="#666" width="438" height="38" class="note"></rect><text x="504" y="224" text-anchor="middle" dominant-baseline="middle" alignment-baseline="middle" class="noteText" dy="1em" style="font-size: 16px; font-weight: 400;"><tspan x="504">Dutch auction runs ⇒ fills 1&nbsp;&amp;&nbsp;4 selected (20&nbsp;%, 60&nbsp;%)</tspan></text></g><g><rect x="1280.5" y="315" fill="#EDF2AE" stroke="#666" width="231" height="38" class="note"></rect><text x="1396" y="320" text-anchor="middle" dominant-baseline="middle" alignment-baseline="middle" class="noteText" dy="1em" style="font-size: 16px; font-weight: 400;"><tspan x="1396">Maker tokens</tspan></text></g><g><line x1="64" y1="747" x2="2280" y2="747" class="loopLine"></line><line x1="2280" y1="747" x2="2280" y2="1317" class="loopLine"></line><line x1="64" y1="1317" x2="2280" y2="1317" class="loopLine"></line><line x1="64" y1="747" x2="64" y2="1317" class="loopLine"></line><line x1="64" y1="1037" x2="2280" y2="1037" class="loopLine" style="stroke-dasharray: 3, 3;"></line><polygon points="64,747 114,747 114,760 105.6,767 64,767" class="labelBox"></polygon><text x="89" y="760" text-anchor="middle" dominant-baseline="middle" alignment-baseline="middle" class="labelText" style="font-size: 16px; font-weight: 400;">par</text><text x="1197" y="765" text-anchor="middle" class="loopText" style="font-size: 16px; font-weight: 400;"><tspan x="1197">[Fill&nbsp;1&nbsp;(20&nbsp;%)]</tspan></text><text x="1172" y="1055" text-anchor="middle" class="loopText" style="font-size: 16px; font-weight: 400;">[Fill&nbsp;4&nbsp;(60&nbsp;%)]</text></g><g><line x1="1244.5" y1="1516" x2="2517" y2="1516" class="loopLine"></line><line x1="2517" y1="1516" x2="2517" y2="1798" class="loopLine"></line><line x1="1244.5" y1="1798" x2="2517" y2="1798" class="loopLine"></line><line x1="1244.5" y1="1516" x2="1244.5" y2="1798" class="loopLine"></line><line x1="1244.5" y1="1662" x2="2517" y2="1662" class="loopLine" style="stroke-dasharray: 3, 3;"></line><polygon points="1244.5,1516 1294.5,1516 1294.5,1529 1286.1,1536 1244.5,1536" class="labelBox"></polygon><text x="1270" y="1529" text-anchor="middle" dominant-baseline="middle" alignment-baseline="middle" class="labelText" style="font-size: 16px; font-weight: 400;">par</text><text x="1905.75" y="1534" text-anchor="middle" class="loopText" style="font-size: 16px; font-weight: 400;"><tspan x="1905.75">[Resolve for Fill 1 (20%)]</tspan></text><text x="1880.75" y="1680" text-anchor="middle" class="loopText" style="font-size: 16px; font-weight: 400;">[Resolve for Fill 4 (60%)]</text></g><g><line x1="493" y1="1327" x2="2527" y2="1327" class="loopLine"></line><line x1="2527" y1="1327" x2="2527" y2="1808" class="loopLine"></line><line x1="493" y1="1808" x2="2527" y2="1808" class="loopLine"></line><line x1="493" y1="1327" x2="493" y2="1808" class="loopLine"></line><polygon points="493,1327 543,1327 543,1340 534.6,1347 493,1347" class="labelBox"></polygon><text x="518" y="1340" text-anchor="middle" dominant-baseline="middle" alignment-baseline="middle" class="labelText" style="font-size: 16px; font-weight: 400;">alt</text><text x="1535" y="1345" text-anchor="middle" class="loopText" style="font-size: 16px; font-weight: 400;"><tspan x="1535">[Resolver timelock Δt₁ expires **before** Maker reveals secret (E4)]</tspan></text></g><g><line x1="804" y1="1818" x2="2280" y2="1818" class="loopLine"></line><line x1="2280" y1="1818" x2="2280" y2="1959" class="loopLine"></line><line x1="804" y1="1959" x2="2280" y2="1959" class="loopLine"></line><line x1="804" y1="1818" x2="804" y2="1959" class="loopLine"></line><polygon points="804,1818 854,1818 854,1831 845.6,1838 804,1838" class="labelBox"></polygon><text x="829" y="1831" text-anchor="middle" dominant-baseline="middle" alignment-baseline="middle" class="labelText" style="font-size: 16px; font-weight: 400;">alt</text><text x="1567" y="1836" text-anchor="middle" class="loopText" style="font-size: 16px; font-weight: 400;"><tspan x="1567">[Maker timelock Δt₂ expires (E5) – Maker forgot to withdraw on dst chain]</tspan></text></g><text x="288" y="80" text-anchor="middle" dominant-baseline="middle" alignment-baseline="middle" class="messageText" dy="1em" style="font-size: 16px; font-weight: 400;">Signed Fusion order { merkleRoot, qtyTotal }</text><line x1="76" y1="113" x2="500" y2="113" class="messageLine0" stroke-width="2" stroke="none" marker-end="url(#arrowhead)" style="fill: none;"></line><text x="658" y="128" text-anchor="middle" dominant-baseline="middle" alignment-baseline="middle" class="messageText" dy="1em" style="font-size: 16px; font-weight: 400;">Order details</text><line x1="505" y1="161" x2="811" y2="161" class="messageLine1" stroke-width="2" stroke="none" marker-end="url(#arrowhead)" style="stroke-dasharray: 3, 3; fill: none;"></line><text x="758" y="176" text-anchor="middle" dominant-baseline="middle" alignment-baseline="middle" class="messageText" dy="1em" style="font-size: 16px; font-weight: 400;">Order details</text><line x1="505" y1="209" x2="1011" y2="209" class="messageLine1" stroke-width="2" stroke="none" marker-end="url(#arrowhead)" style="stroke-dasharray: 3, 3; fill: none;"></line><text x="1034" y="272" text-anchor="middle" dominant-baseline="middle" alignment-baseline="middle" class="messageText" dy="1em" style="font-size: 16px; font-weight: 400;">createEscrow(fillId&nbsp;1, hash₁, qty20%)   %% on‑chain A</text><line x1="816" y1="305" x2="1251.5" y2="305" class="messageLine0" stroke-width="2" stroke="none" marker-end="url(#arrowhead)" style="fill: none;"></line><text x="1319" y="368" text-anchor="middle" dominant-baseline="middle" alignment-baseline="middle" class="messageText" dy="1em" style="font-size: 16px; font-weight: 400;">createEscrow(fillId&nbsp;4, hash₄, qty60%)   %% on‑chain A</text><line x1="1016" y1="401" x2="1622.5" y2="401" class="messageLine0" stroke-width="2" stroke="none" marker-end="url(#arrowhead)" style="fill: none;"></line><text x="881" y="416" text-anchor="middle" dominant-baseline="middle" alignment-baseline="middle" class="messageText" dy="1em" style="font-size: 16px; font-weight: 400;">FinalityLock(fill&nbsp;1)</text><line x1="1254.5" y1="449" x2="508" y2="449" class="messageLine1" stroke-width="2" stroke="none" marker-end="url(#arrowhead)" style="stroke-dasharray: 3, 3; fill: none;"></line><text x="1067" y="464" text-anchor="middle" dominant-baseline="middle" alignment-baseline="middle" class="messageText" dy="1em" style="font-size: 16px; font-weight: 400;">FinalityLock(fill&nbsp;4)</text><line x1="1625.5" y1="497" x2="508" y2="497" class="messageLine1" stroke-width="2" stroke="none" marker-end="url(#arrowhead)" style="stroke-dasharray: 3, 3; fill: none;"></line><text x="1403" y="512" text-anchor="middle" dominant-baseline="middle" alignment-baseline="middle" class="messageText" dy="1em" style="font-size: 16px; font-weight: 400;">depositTokenB(qty20%, hash₁)            %% on‑chain&nbsp;B</text><line x1="816" y1="545" x2="1990.5" y2="545" class="messageLine0" stroke-width="2" stroke="none" marker-end="url(#arrowhead)" style="fill: none;"></line><text x="1641" y="560" text-anchor="middle" dominant-baseline="middle" alignment-baseline="middle" class="messageText" dy="1em" style="font-size: 16px; font-weight: 400;">depositTokenB(qty60%, hash₄)            %% on‑chain&nbsp;B</text><line x1="1016" y1="593" x2="2265" y2="593" class="messageLine0" stroke-width="2" stroke="none" marker-end="url(#arrowhead)" style="fill: none;"></line><text x="1251" y="608" text-anchor="middle" dominant-baseline="middle" alignment-baseline="middle" class="messageText" dy="1em" style="font-size: 16px; font-weight: 400;">FinalityLock(fill&nbsp;1)</text><line x1="1993.5" y1="641" x2="508" y2="641" class="messageLine1" stroke-width="2" stroke="none" marker-end="url(#arrowhead)" style="stroke-dasharray: 3, 3; fill: none;"></line><text x="1388" y="656" text-anchor="middle" dominant-baseline="middle" alignment-baseline="middle" class="messageText" dy="1em" style="font-size: 16px; font-weight: 400;">FinalityLock(fill&nbsp;4)</text><line x1="2268" y1="689" x2="508" y2="689" class="messageLine1" stroke-width="2" stroke="none" marker-end="url(#arrowhead)" style="stroke-dasharray: 3, 3; fill: none;"></line><text x="291" y="704" text-anchor="middle" dominant-baseline="middle" alignment-baseline="middle" class="messageText" dy="1em" style="font-size: 16px; font-weight: 400;">SafeToRevealSecrets</text><line x1="503" y1="737" x2="79" y2="737" class="messageLine1" stroke-width="2" stroke="none" marker-end="url(#arrowhead)" style="stroke-dasharray: 3, 3; fill: none;"></line><text x="288" y="797" text-anchor="middle" dominant-baseline="middle" alignment-baseline="middle" class="messageText" dy="1em" style="font-size: 16px; font-weight: 400;">revealSecret(secret₁, proof₁)</text><line x1="76" y1="830" x2="500" y2="830" class="messageLine0" stroke-width="2" stroke="none" marker-end="url(#arrowhead)" style="fill: none;"></line><text x="658" y="845" text-anchor="middle" dominant-baseline="middle" alignment-baseline="middle" class="messageText" dy="1em" style="font-size: 16px; font-weight: 400;">revealSecret(secret₁, proof₁)</text><line x1="505" y1="878" x2="811" y2="878" class="messageLine0" stroke-width="2" stroke="none" marker-end="url(#arrowhead)" style="fill: none;"></line><text x="1036" y="893" text-anchor="middle" dominant-baseline="middle" alignment-baseline="middle" class="messageText" dy="1em" style="font-size: 16px; font-weight: 400;">withdraw&nbsp;20%&nbsp;tokenB&nbsp;(6)</text><line x1="1993.5" y1="926" x2="79" y2="926" class="messageLine1" stroke-width="2" stroke="none" marker-end="url(#arrowhead)" style="stroke-dasharray: 3, 3; fill: none;"></line><text x="1034" y="941" text-anchor="middle" dominant-baseline="middle" alignment-baseline="middle" class="messageText" dy="1em" style="font-size: 16px; font-weight: 400;">withdrawWithSecret(secret₁, proof₁)  %% on‑chain&nbsp;A (7)</text><line x1="816" y1="974" x2="1251.5" y2="974" class="messageLine0" stroke-width="2" stroke="none" marker-end="url(#arrowhead)" style="fill: none;"></line><text x="1037" y="989" text-anchor="middle" dominant-baseline="middle" alignment-baseline="middle" class="messageText" dy="1em" style="font-size: 16px; font-weight: 400;">receive&nbsp;20%&nbsp;tokenA</text><line x1="1254.5" y1="1022" x2="819" y2="1022" class="messageLine1" stroke-width="2" stroke="none" marker-end="url(#arrowhead)" style="stroke-dasharray: 3, 3; fill: none;"></line><text x="288" y="1082" text-anchor="middle" dominant-baseline="middle" alignment-baseline="middle" class="messageText" dy="1em" style="font-size: 16px; font-weight: 400;">revealSecret(secret₄, proof₄)</text><line x1="76" y1="1115" x2="500" y2="1115" class="messageLine0" stroke-width="2" stroke="none" marker-end="url(#arrowhead)" style="fill: none;"></line><text x="758" y="1130" text-anchor="middle" dominant-baseline="middle" alignment-baseline="middle" class="messageText" dy="1em" style="font-size: 16px; font-weight: 400;">revealSecret(secret₄, proof₄)</text><line x1="505" y1="1163" x2="1011" y2="1163" class="messageLine0" stroke-width="2" stroke="none" marker-end="url(#arrowhead)" style="fill: none;"></line><text x="1174" y="1178" text-anchor="middle" dominant-baseline="middle" alignment-baseline="middle" class="messageText" dy="1em" style="font-size: 16px; font-weight: 400;">withdraw&nbsp;60%&nbsp;tokenB</text><line x1="2268" y1="1211" x2="79" y2="1211" class="messageLine1" stroke-width="2" stroke="none" marker-end="url(#arrowhead)" style="stroke-dasharray: 3, 3; fill: none;"></line><text x="1319" y="1226" text-anchor="middle" dominant-baseline="middle" alignment-baseline="middle" class="messageText" dy="1em" style="font-size: 16px; font-weight: 400;">withdrawWithSecret(secret₄, proof₄)</text><line x1="1016" y1="1259" x2="1622.5" y2="1259" class="messageLine0" stroke-width="2" stroke="none" marker-end="url(#arrowhead)" style="fill: none;"></line><text x="1322" y="1274" text-anchor="middle" dominant-baseline="middle" alignment-baseline="middle" class="messageText" dy="1em" style="font-size: 16px; font-weight: 400;">receive&nbsp;60%&nbsp;tokenA</text><line x1="1625.5" y1="1307" x2="1019" y2="1307" class="messageLine1" stroke-width="2" stroke="none" marker-end="url(#arrowhead)" style="stroke-dasharray: 3, 3; fill: none;"></line><text x="658" y="1377" text-anchor="middle" dominant-baseline="middle" alignment-baseline="middle" class="messageText" dy="1em" style="font-size: 16px; font-weight: 400;">broadcast(secret merkle tree)</text><line x1="505" y1="1410" x2="811" y2="1410" class="messageLine0" stroke-width="2" stroke="none" marker-end="url(#arrowhead)" style="fill: none;"></line><text x="758" y="1425" text-anchor="middle" dominant-baseline="middle" alignment-baseline="middle" class="messageText" dy="1em" style="font-size: 16px; font-weight: 400;">broadcast(secret merkle tree)</text><line x1="505" y1="1458" x2="1011" y2="1458" class="messageLine0" stroke-width="2" stroke="none" marker-end="url(#arrowhead)" style="fill: none;"></line><text x="1504" y="1473" text-anchor="middle" dominant-baseline="middle" alignment-baseline="middle" class="messageText" dy="1em" style="font-size: 16px; font-weight: 400;">broadcast(secret merkle tree)</text><line x1="505" y1="1506" x2="2502" y2="1506" class="messageLine0" stroke-width="2" stroke="none" marker-end="url(#arrowhead)" style="fill: none;"></line><text x="1882" y="1566" text-anchor="middle" dominant-baseline="middle" alignment-baseline="middle" class="messageText" dy="1em" style="font-size: 16px; font-weight: 400;">unlock(secret₁)</text><line x1="2505" y1="1599" x2="1259.5" y2="1599" class="messageLine0" stroke-width="2" stroke="none" marker-end="url(#arrowhead)" style="fill: none;"></line><text x="2252" y="1614" text-anchor="middle" dominant-baseline="middle" alignment-baseline="middle" class="messageText" dy="1em" style="font-size: 16px; font-weight: 400;">unlcok(secret₁)</text><line x1="2505" y1="1647" x2="1998.5" y2="1647" class="messageLine0" stroke-width="2" stroke="none" marker-end="url(#arrowhead)" style="fill: none;"></line><text x="1882" y="1707" text-anchor="middle" dominant-baseline="middle" alignment-baseline="middle" class="messageText" dy="1em" style="font-size: 16px; font-weight: 400;">unlock(secret₄)</text><line x1="2505" y1="1740" x2="1259.5" y2="1740" class="messageLine0" stroke-width="2" stroke="none" marker-end="url(#arrowhead)" style="fill: none;"></line><text x="2252" y="1755" text-anchor="middle" dominant-baseline="middle" alignment-baseline="middle" class="messageText" dy="1em" style="font-size: 16px; font-weight: 400;">unlock(secret₄)</text><line x1="2505" y1="1788" x2="1998.5" y2="1788" class="messageLine0" stroke-width="2" stroke="none" marker-end="url(#arrowhead)" style="fill: none;"></line><text x="1403" y="1868" text-anchor="middle" dominant-baseline="middle" alignment-baseline="middle" class="messageText" dy="1em" style="font-size: 16px; font-weight: 400;">cancelAndRefund()</text><line x1="816" y1="1901" x2="1990.5" y2="1901" class="messageLine0" stroke-width="2" stroke="none" marker-end="url(#arrowhead)" style="fill: none;"></line><text x="1641" y="1916" text-anchor="middle" dominant-baseline="middle" alignment-baseline="middle" class="messageText" dy="1em" style="font-size: 16px; font-weight: 400;">cancelAndRefund()</text><line x1="1016" y1="1949" x2="2265" y2="1949" class="messageLine0" stroke-width="2" stroke="none" marker-end="url(#arrowhead)" style="fill: none;"></line></g></svg>